<?xml version="1.0" standalone="no"?>
<!DOCTYPE svg PUBLIC "-//W3C//DTD SVG 20010904//EN"
 "http://www.w3.org/TR/2001/REC-SVG-20010904/DTD/svg10.dtd">
<svg version="1.0" xmlns="http://www.w3.org/2000/svg"
 width="148.000000pt" height="148.000000pt" viewBox="0 0 148.000000 148.000000"
 preserveAspectRatio="xMidYMid meet">

<g transform="translate(0.000000,148.000000) scale(0.100000,-0.100000)"
fill="#000000" stroke="none">
<path d="M175 1446 c-61 -29 -118 -86 -144 -146 -17 -40 -20 -77 -25 -350 -4
-168 -3 -402 2 -520 8 -204 10 -218 34 -266 29 -56 93 -119 142 -139 45 -19
164 -28 255 -20 l78 7 164 421 c90 231 176 439 190 462 34 53 83 77 159 76 95
0 154 -45 180 -135 17 -63 12 -81 -141 -477 -71 -185 -129 -339 -129 -343 0
-4 76 -6 168 -4 157 3 171 5 217 29 28 14 64 44 82 67 60 79 62 92 64 634 1
470 1 495 -18 544 -28 73 -65 116 -125 150 -51 28 -59 29 -208 32 l-155 4
-114 -299 c-190 -495 -230 -597 -251 -630 -21 -35 -76 -68 -131 -78 -76 -14
-175 40 -205 112 -28 65 -18 111 70 340 117 304 206 540 206 547 0 3 -71 6
-157 6 -145 0 -162 -2 -208 -24z"/>
</g>
</svg>
