<?xml version="1.0" encoding="UTF-8"?>
<svg id="Capa_2" data-name="Capa 2" xmlns="http://www.w3.org/2000/svg" viewBox="0 0 497.92 499.17">
  <defs>
    <style>
      .cls-1, .cls-2 {
        stroke-width: 0px;
      }

      .cls-1, .cls-3 {
        fill: #4d00e0;
      }

      .cls-4 {
        stroke: #4d00e0;
        stroke-miterlimit: 10;
        stroke-width: 8.08px;
      }

      .cls-4, .cls-2 {
        fill: #fff;
      }

      .cls-3 {
        font-family: AvenirNextLTPro-Bold, 'Avenir Next LT Pro';
        font-size: 48.45px;
        font-weight: 700;
      }
    </style>
  </defs>
  <g id="Capa_1-2" data-name="Capa 1">
    <g>
      <path class="cls-1" d="M64.67,416.18C-51.88,288.58-5.9,79.51,162.41,16.15c150.89-56.8,313.7,42.3,333.42,202.82,9.21,74.91-12.18,140.79-62.41,197.23-1.87-2.83-3.96-5.53-5.57-8.5-26.01-47.99-64.91-79.98-117.55-95.04-4.96-1.42-10.65-1.1-15.11-5.08,42.76-28.04,59.43-67.73,47.49-112.04-10.53-39.09-46.76-68.6-86.62-70.55-43.23-2.12-81.22,22.32-96.67,62.19-17,43.85-2.89,82.51,44.11,120.76-2.49,2.74-5.96,2.91-9.21,3.65-35.98,8.14-66.36,25.99-92.34,52.08-15.44,15.51-25.39,34.66-37.3,52.53Z"/>
      <path class="cls-2" d="M64.67,416.18c11.91-17.88,21.85-37.03,37.3-52.53,25.98-26.09,56.36-43.93,92.34-52.08,3.25-.74,6.73-.91,9.21-3.65-47-38.24-61.11-76.91-44.11-120.76,15.45-39.86,53.44-64.3,96.67-62.19,39.86,1.95,76.09,31.46,86.62,70.55,11.94,44.31-4.73,84-47.49,112.04,4.46,3.99,10.14,3.66,15.11,5.08,52.64,15.06,91.54,47.05,117.55,95.04,1.61,2.97,3.7,5.67,5.57,8.5-98.57,110.64-270.27,110.63-368.76-.02Z"/>
      <rect class="cls-4" x="298.21" y="114.79" width="157.77" height="93.3" rx="12" ry="12"/>
      <text class="cls-3" transform="translate(342.02 176.67)"><tspan x="0" y="0">Hi!</tspan></text>
    </g>
  </g>
</svg>