<?xml version="1.0" encoding="UTF-8"?>
<svg id="Capa_2" data-name="Capa 2" xmlns="http://www.w3.org/2000/svg" viewBox="0 0 497.92 499.17">
  <defs>
    <style>
      .cls-1 {
        fill: #4d00e0;
      }

      .cls-1, .cls-2 {
        stroke-width: 0px;
      }

      .cls-2 {
        fill: #fff;
      }
    </style>
  </defs>
  <g id="Capa_1-2" data-name="Capa 1">
    <g>
      <g>
        <path class="cls-2" d="M433.81,409.62c-.88-1.29-1.7-2.55-2.41-3.85-26.67-49.21-67.04-81.85-119.99-96.99-1.66-.47-3.31-.76-4.9-1.04-1.2-.21-2.34-.41-3.42-.67,39.95-28.71,55.39-68.45,43.5-112.57-10.93-40.58-48.92-71.51-90.32-73.54-1.79-.09-3.6-.13-5.38-.13-42.58,0-79.97,25.47-95.25,64.89-16.95,43.72-3.68,83.47,40.55,121.36-.28.06-.57.11-.88.17-.64.12-1.28.25-1.91.39-35.43,8.02-67.16,25.91-94.31,53.17-11.72,11.77-20.39,25.63-28.77,39.03-2.01,3.21-4.07,6.5-6.16,9.75-26.07-29.74-43.98-64.1-53.25-102.21-9.12-37.5-9.15-77.34-.07-115.21,9.07-37.83,27.14-73.24,52.25-102.42,26.94-31.29,60.83-54.78,100.73-69.8,28-10.54,57.07-15.89,86.39-15.89,58.4,0,115.03,21.29,159.46,59.94,45.51,39.59,74.68,94.81,82.14,155.48,8.75,71.22-10.77,135.17-58.01,190.16Z"/>
        <path class="cls-1" d="M250.23,8.08c57.42,0,113.11,20.94,156.81,58.95,21.85,19.01,39.88,41.53,53.58,66.94,14.3,26.52,23.45,55.45,27.2,85.98,4.42,35.96,1.53,70.32-8.6,102.11-9.06,28.46-24.14,55.55-44.88,80.66-27.2-49.56-68.17-82.47-121.77-97.82,36.1-29.24,49.55-68.32,37.92-111.47-11.38-42.23-50.92-74.41-94.03-76.52-1.86-.09-3.73-.14-5.58-.14-44.26,0-83.13,26.48-99.02,67.47-16.86,43.49-5.17,83.06,35.75,120.62-34.22,8.69-64.94,26.53-91.38,53.08-12.04,12.09-20.83,26.14-29.34,39.73-1.06,1.69-2.13,3.4-3.21,5.12-10.89-13-20.33-27.03-28.16-41.82-9.11-17.23-16.07-35.59-20.69-54.57-8.97-36.88-8.99-76.07-.07-113.32,8.92-37.2,26.69-72.03,51.38-100.73,26.49-30.77,59.83-53.87,99.09-68.65,27.55-10.37,56.13-15.63,84.97-15.63M250.23,0c-28.96,0-58.62,5.16-87.81,16.15C-5.9,79.51-51.88,288.58,64.67,416.18c11.91-17.88,21.85-37.03,37.3-52.53,25.98-26.09,56.36-43.93,92.34-52.08,3.25-.74,6.73-.91,9.21-3.65-47-38.24-61.11-76.91-44.11-120.76,14.83-38.26,50.42-62.31,91.49-62.31,1.72,0,3.45.04,5.18.13,39.86,1.95,76.09,31.46,86.62,70.55,11.94,44.31-4.73,84-47.49,112.04,4.46,3.99,10.14,3.66,15.11,5.08,52.64,15.06,91.54,47.05,117.55,95.04,1.61,2.97,3.7,5.67,5.57,8.5,50.23-56.43,71.61-122.32,62.41-197.23C479.93,89.51,370.96,0,250.23,0h0Z"/>
      </g>
      <g>
        <path class="cls-2" d="M249.03,495.13c-33.82,0-66.6-6.87-97.42-20.41-31.12-13.67-58.64-33.49-81.85-58.93,2.54-3.89,5.01-7.84,7.42-11.69,8.15-13.02,16.57-26.49,27.65-37.61,26.41-26.52,55.97-43.2,90.37-50.99.55-.12,1.1-.23,1.65-.34,2.99-.58,6.72-1.29,9.66-4.54l2.86-3.16-3.31-2.69c-45.6-37.1-59.23-74.02-42.9-116.16,6.97-17.97,18.87-33.06,34.41-43.62,15.51-10.54,33.94-16.11,53.31-16.11,1.65,0,3.33.04,4.99.12,38,1.86,72.87,30.28,82.92,67.57,5.71,21.19,4.68,41.21-3.05,59.5-7.8,18.44-22.18,34.62-42.75,48.12l-4.39,2.88,3.92,3.5c4.01,3.59,8.58,4.39,12.61,5.1,1.46.26,2.83.5,4.08.86,50.78,14.53,89.51,45.84,115.11,93.08,1.21,2.22,2.62,4.25,3.98,6.21,0,0,.01.01.02.02-23.21,25.42-50.73,45.22-81.84,58.88-30.83,13.54-63.61,20.4-97.43,20.4Z"/>
        <path class="cls-1" d="M250.9,124.85v8.08c1.58,0,3.19.04,4.78.12,36.3,1.78,69.61,28.94,79.22,64.59,5.47,20.3,4.5,39.43-2.87,56.88-7.48,17.68-21.36,33.27-41.25,46.31l-8.79,5.76,7.83,7.01c4.87,4.36,10.5,5.35,14.6,6.07,1.35.24,2.62.46,3.67.76,25.02,7.16,47.19,18.49,65.89,33.68,18.54,15.05,34.27,34.38,46.78,57.44.76,1.4,1.57,2.69,2.39,3.93-22.37,23.87-48.68,42.55-78.31,55.56-30.32,13.31-62.55,20.06-95.8,20.06s-65.49-6.75-95.8-20.07c-29.66-13.03-56-31.74-78.38-55.67,1.96-3.05,3.87-6.11,5.75-9.11,8.4-13.42,16.33-26.1,27.09-36.9,25.86-25.96,54.77-42.29,88.4-49.9.5-.11,1.01-.21,1.52-.31,3.2-.62,8.04-1.55,11.89-5.79l5.73-6.31-6.61-5.38c-22.56-18.35-36.81-36.27-43.57-54.78-6.57-17.99-5.95-36.57,1.89-56.79,6.67-17.21,18.05-31.64,32.92-41.74,14.84-10.08,32.48-15.41,51.04-15.41v-8.08M250.89,124.85c-41.06,0-76.65,24.05-91.49,62.31-17,43.85-2.89,82.51,44.11,120.76-2.49,2.74-5.96,2.91-9.21,3.65-35.98,8.14-66.36,25.99-92.34,52.08-15.44,15.51-25.39,34.66-37.3,52.53,49.25,55.33,116.8,82.99,184.36,82.99s135.12-27.66,184.4-82.98c-1.87-2.83-3.96-5.53-5.57-8.5-26.01-47.99-64.91-79.97-117.55-95.04-4.96-1.42-10.65-1.1-15.11-5.08,42.76-28.04,59.43-67.73,47.49-112.04-10.53-39.09-46.76-68.6-86.62-70.55-1.74-.09-3.46-.13-5.18-.13h0Z"/>
      </g>
    </g>
  </g>
</svg>